<svg width="40" height="40" viewBox="0 0 40 40" fill="none" xmlns="http://www.w3.org/2000/svg">
<g clip-path="url(#clip0_9_120)">
<path d="M34.3748 23.9982C37.4815 23.9982 40 26.0128 40 28.498V30.3081C40 32.4954 38.8063 34.5737 36.7317 35.9985C32.818 38.6864 27.217 40 19.9918 40C12.7678 40 7.17058 38.6868 3.26329 35.9995C1.19167 34.5748 0 32.4981 0 30.3126V28.498C0 26.0128 2.51848 23.9982 5.62517 23.9982H34.3748ZM34.3748 26.9981H5.62517C4.58961 26.9981 3.75011 27.6696 3.75011 28.498V30.3126C3.75011 31.6239 4.46511 32.8699 5.70809 33.7248C8.8534 35.888 13.5936 37.0001 19.9918 37.0001C26.3919 37.0001 31.1366 35.8873 34.2889 33.7224C35.5337 32.8675 36.2499 31.6205 36.2499 30.3081V28.498C36.2499 27.6696 35.4104 26.9981 34.3748 26.9981ZM19.7382 0.0136929L19.9926 0C20.9419 0 21.7264 0.564292 21.8505 1.29642L21.8676 1.49996L21.8657 2.99791L30.6171 2.99892C33.7238 2.99892 36.2423 5.01359 36.2423 7.49879V16.5077C36.2423 18.9929 33.7238 21.0076 30.6171 21.0076H9.36643C6.25974 21.0076 3.74126 18.9929 3.74126 16.5077V7.49879C3.74126 5.01359 6.25974 2.99892 9.36643 2.99892L18.1156 2.99791L18.1175 1.49996C18.1175 0.740587 18.8229 0.113015 19.7382 0.0136929ZM30.6171 5.99884H9.36643C8.33087 5.99884 7.49138 6.67039 7.49138 7.49879V16.5077C7.49138 17.3361 8.33087 18.0077 9.36643 18.0077H30.6171C31.6526 18.0077 32.4921 17.3361 32.4921 16.5077V7.49879C32.4921 6.67039 31.6526 5.99884 30.6171 5.99884ZM14.3648 8.99875C16.0898 8.99875 17.4881 10.1174 17.4881 11.4973C17.4881 12.8771 16.0898 13.9958 14.3648 13.9958C12.6398 13.9958 11.2415 12.8771 11.2415 11.4973C11.2415 10.1174 12.6398 8.99875 14.3648 8.99875ZM25.597 8.99875C27.322 8.99875 28.7203 10.1174 28.7203 11.4973C28.7203 12.8771 27.322 13.9958 25.597 13.9958C23.872 13.9958 22.4737 12.8771 22.4737 11.4973C22.4737 10.1174 23.872 8.99875 25.597 8.99875Z" fill="white"/>
</g>
<defs>
<clipPath id="clip0_9_120">
<rect width="40" height="40" fill="white"/>
</clipPath>
</defs>
</svg>
